<svg width="571" height="606" viewBox="0 0 571 606" fill="none" xmlns="http://www.w3.org/2000/svg">
<path d="M76.7484 140.925L55.1916 139.598V185.365C55.1916 191.335 56.076 195.646 57.8447 198.299C59.8346 200.952 63.3721 202.279 68.4573 202.279C73.7636 202.279 77.7433 202.5 80.3964 202.942C83.2707 203.163 86.2555 204.158 89.3508 205.927C94.436 208.801 96.9786 216.208 96.9786 228.147C96.9786 242.076 93.8832 250.588 87.6926 253.684C84.3762 255.231 81.3914 256.226 78.7382 256.668C76.3062 256.889 72.6581 257 67.794 257C44.8001 257 27.3336 251.804 15.3945 241.413C3.45534 231.021 -2.51423 213.444 -2.51423 188.682V139.598C-6.71504 140.262 -11.2475 140.593 -16.1116 140.593C-20.9757 140.593 -25.0659 138.714 -28.3824 134.955C-31.4777 131.197 -33.0254 124.785 -33.0254 115.72C-33.0254 106.655 -32.4726 100.133 -31.3671 96.1533C-30.2617 91.9525 -28.714 88.9677 -26.7241 87.1989C-23.1866 84.3247 -18.7647 82.8876 -13.4584 82.8876L-2.51423 84.2142V50.055C-2.51423 44.9698 -2.40368 41.2112 -2.18259 38.7791C-1.7404 36.3471 -0.634923 33.6939 1.13384 30.8197C4.00808 25.2923 12.5202 22.5286 26.6703 22.5286C41.7048 22.5286 50.6591 26.6189 53.5334 34.7994C54.6389 38.3369 55.1916 43.9748 55.1916 51.7132V84.2142C64.9198 83.3298 72.2159 82.8876 77.08 82.8876C82.1652 82.8876 85.9238 83.1087 88.3559 83.5509C91.009 83.772 93.9938 84.7669 97.3102 86.5357C103.059 89.4099 105.933 97.9221 105.933 112.072C105.933 126.001 102.948 134.513 96.9786 137.609C93.6621 139.156 90.6774 140.151 88.0242 140.593C85.5922 140.815 81.8336 140.925 76.7484 140.925ZM124.246 111.409C124.246 106.324 124.356 102.565 124.577 100.133C125.02 97.4799 126.015 94.4951 127.562 91.1787C130.658 85.4302 139.28 82.5559 153.43 82.5559C164.043 82.5559 171.56 84.4353 175.982 88.1939C179.741 91.2892 181.731 96.0427 181.952 102.455C182.173 104.665 182.283 107.871 182.283 112.072V228.147C182.283 233.232 182.062 237.101 181.62 239.755C181.399 242.187 180.404 245.061 178.635 248.377C175.761 254.126 167.249 257 153.099 257C139.17 257 130.658 254.015 127.562 248.046C126.015 244.729 125.02 241.855 124.577 239.423C124.356 236.991 124.246 233.122 124.246 227.815V111.409ZM178.635 50.055C177.088 53.1503 174.213 55.3613 170.012 56.6878C165.812 58.0144 160.174 58.6777 153.099 58.6777C146.245 58.6777 140.717 58.0144 136.517 56.6878C132.316 55.3613 129.331 53.0398 127.562 49.7233C126.015 46.4069 125.02 43.5327 124.577 41.1006C124.356 38.4475 124.246 34.5783 124.246 29.4931C124.246 24.4079 124.356 20.6493 124.577 18.2173C125.02 15.5641 126.015 12.6899 127.562 9.59455C130.658 3.62498 139.28 0.640196 153.43 0.640196C167.359 0.640196 175.761 3.62498 178.635 9.59455C180.404 12.911 181.399 15.8958 181.62 18.5489C182.062 20.981 182.283 24.7396 182.283 29.8248C182.283 34.9099 182.062 38.7791 181.62 41.4323C181.399 43.8643 180.404 46.7385 178.635 50.055ZM263.497 169.778C263.497 179.064 266.592 186.36 272.783 191.666C278.974 196.752 285.496 199.294 292.35 199.294C299.425 199.294 305.947 197.304 311.917 193.325C318.107 189.124 323.082 187.023 326.841 187.023C333.473 187.023 341.543 192.882 351.051 204.6C356.136 211.012 358.678 216.761 358.678 221.846C358.678 230.247 352.598 238.096 340.438 245.393C327.836 254.236 312.359 258.658 294.008 258.658C273.446 258.658 253.658 251.252 234.644 236.438C225.579 229.363 218.172 219.967 212.424 208.249C206.675 196.309 203.801 183.265 203.801 169.115C203.801 154.744 206.675 141.809 212.424 130.312C218.172 118.594 225.579 109.198 234.644 102.123C252.995 87.5306 272.562 80.2344 293.345 80.2344C301.746 80.2344 309.927 81.4505 317.886 83.8825C325.846 86.0935 331.705 88.3044 335.463 90.5154L340.77 93.8318C344.749 96.4849 347.845 98.5853 350.056 100.133C355.804 104.555 358.678 109.64 358.678 115.389C358.678 120.916 356.357 127.217 351.714 134.292C343.754 146.452 336.127 152.533 328.83 152.533C324.63 152.533 318.66 150.101 310.922 145.236C306.942 141.478 301.194 139.598 293.676 139.598C286.38 139.598 279.526 142.252 273.115 147.558C266.703 152.864 263.497 160.271 263.497 169.778ZM431.508 202.279C435.266 206.038 437.145 213.776 437.145 225.494V226.821C437.145 232.127 436.924 236.107 436.482 238.76C436.261 241.192 435.156 244.176 433.166 247.714C429.849 254.126 421.448 257.332 407.961 257.332C394.695 257.332 385.851 255.231 381.429 251.03C377.229 246.83 375.128 238.87 375.128 227.152V225.826C375.128 220.74 375.239 216.871 375.46 214.218C375.902 211.565 377.008 208.58 378.776 205.264C382.093 198.631 390.384 195.314 403.65 195.314C417.136 195.314 426.422 197.636 431.508 202.279ZM76.7484 516.925L55.1916 515.598V561.365C55.1916 567.335 56.076 571.646 57.8447 574.299C59.8346 576.952 63.3721 578.279 68.4573 578.279C73.7636 578.279 77.7433 578.5 80.3964 578.942C83.2707 579.163 86.2555 580.158 89.3508 581.927C94.436 584.801 96.9786 592.208 96.9786 604.147C96.9786 618.076 93.8832 626.588 87.6926 629.684C84.3762 631.231 81.3914 632.226 78.7382 632.668C76.3062 632.889 72.6581 633 67.794 633C44.8001 633 27.3336 627.804 15.3945 617.413C3.45534 607.021 -2.51423 589.444 -2.51423 564.682V515.598C-6.71504 516.262 -11.2475 516.593 -16.1116 516.593C-20.9757 516.593 -25.0659 514.714 -28.3824 510.955C-31.4777 507.197 -33.0254 500.785 -33.0254 491.72C-33.0254 482.655 -32.4726 476.133 -31.3671 472.153C-30.2617 467.952 -28.714 464.968 -26.7241 463.199C-23.1866 460.325 -18.7647 458.888 -13.4584 458.888L-2.51423 460.214V426.055C-2.51423 420.97 -2.40368 417.211 -2.18259 414.779C-1.7404 412.347 -0.634923 409.694 1.13384 406.82C4.00808 401.292 12.5202 398.529 26.6703 398.529C41.7048 398.529 50.6591 402.619 53.5334 410.799C54.6389 414.337 55.1916 419.975 55.1916 427.713V460.214C64.9198 459.33 72.2159 458.888 77.08 458.888C82.1652 458.888 85.9238 459.109 88.3559 459.551C91.009 459.772 93.9938 460.767 97.3102 462.536C103.059 465.41 105.933 473.922 105.933 488.072C105.933 502.001 102.948 510.513 96.9786 513.609C93.6621 515.156 90.6774 516.151 88.0242 516.593C85.5922 516.815 81.8336 516.925 76.7484 516.925ZM119.271 545.778C119.271 519.247 128.557 497.358 147.129 480.113C165.701 462.867 186.926 454.245 210.805 454.245C234.683 454.245 255.797 462.867 274.148 480.113C292.499 497.137 301.675 518.915 301.675 545.446C301.675 563.797 296.921 580.158 287.414 594.529C277.907 608.68 266.299 619.182 252.592 626.036C239.105 632.668 225.065 635.985 210.473 635.985C195.881 635.985 181.731 632.447 168.023 625.372C154.315 618.076 142.707 607.464 133.2 593.535C123.914 579.384 119.271 563.466 119.271 545.778ZM188.584 569.656C195.66 574.963 202.845 577.616 210.141 577.616C217.437 577.616 224.734 574.852 232.03 569.325C239.326 563.797 242.974 555.617 242.974 544.783C242.974 533.949 239.547 525.879 232.693 520.573C225.839 515.267 218.432 512.614 210.473 512.614C202.513 512.614 195.107 515.377 188.253 520.905C181.399 526.432 177.972 534.613 177.972 545.446C177.972 556.059 181.509 564.129 188.584 569.656ZM491.576 524.884C491.576 538.371 488.149 548.431 481.295 555.064C474.663 561.476 467.256 564.682 459.075 564.682H380.476C380.476 570.872 384.124 576.068 391.42 580.269C398.716 584.47 406.013 586.57 413.309 586.57C426.132 586.57 436.192 585.243 443.488 582.59L447.136 581.264C452.443 578.832 456.864 577.616 460.402 577.616C467.477 577.616 473.557 582.59 478.642 592.54C481.517 598.509 482.954 603.594 482.954 607.795C482.954 627.473 459.407 637.311 412.314 637.311C395.953 637.311 381.36 634.548 368.537 629.02C355.934 623.272 346.096 615.755 339.021 606.469C325.092 588.56 318.127 568.551 318.127 546.441C318.127 518.583 327.082 496.363 344.99 479.781C363.12 462.978 385.672 454.576 412.645 454.576C443.378 454.576 465.929 465.41 480.3 487.077C487.818 498.574 491.576 511.177 491.576 524.884ZM421.6 534.502C430.001 534.502 434.202 530.965 434.202 523.89C434.202 518.804 432.212 514.714 428.233 511.619C424.474 508.523 418.947 506.976 411.65 506.976C404.575 506.976 397.5 509.961 390.425 515.93C383.35 521.679 379.813 527.869 379.813 534.502H421.6ZM564.618 578.279C568.377 582.038 570.256 589.776 570.256 601.494V602.821C570.256 608.127 570.035 612.107 569.593 614.76C569.372 617.192 568.266 620.176 566.276 623.714C562.96 630.126 554.558 633.332 541.071 633.332C527.806 633.332 518.962 631.231 514.54 627.03C510.339 622.83 508.239 614.87 508.239 603.152V601.826C508.239 596.74 508.349 592.871 508.57 590.218C509.013 587.565 510.118 584.58 511.887 581.264C515.203 574.631 523.494 571.314 536.76 571.314C550.247 571.314 559.533 573.636 564.618 578.279Z" fill="#DCBF3F"/>
<path d="M76.7484 328.925L55.1916 327.598V373.365C55.1916 379.335 56.076 383.646 57.8447 386.299C59.8346 388.952 63.3721 390.279 68.4573 390.279C73.7636 390.279 77.7433 390.5 80.3964 390.942C83.2707 391.163 86.2555 392.158 89.3508 393.927C94.436 396.801 96.9786 404.208 96.9786 416.147C96.9786 430.076 93.8832 438.588 87.6926 441.684C84.3762 443.231 81.3914 444.226 78.7382 444.668C76.3062 444.889 72.6581 445 67.794 445C44.8001 445 27.3336 439.804 15.3945 429.413C3.45534 419.021 -2.51423 401.444 -2.51423 376.682V327.598C-6.71504 328.262 -11.2475 328.593 -16.1116 328.593C-20.9757 328.593 -25.0659 326.714 -28.3824 322.955C-31.4777 319.197 -33.0254 312.785 -33.0254 303.72C-33.0254 294.655 -32.4726 288.133 -31.3671 284.153C-30.2617 279.952 -28.714 276.968 -26.7241 275.199C-23.1866 272.325 -18.7647 270.888 -13.4584 270.888L-2.51423 272.214V238.055C-2.51423 232.97 -2.40368 229.211 -2.18259 226.779C-1.7404 224.347 -0.634923 221.694 1.13384 218.82C4.00808 213.292 12.5202 210.529 26.6703 210.529C41.7048 210.529 50.6591 214.619 53.5334 222.799C54.6389 226.337 55.1916 231.975 55.1916 239.713V272.214C64.9198 271.33 72.2159 270.888 77.08 270.888C82.1652 270.888 85.9238 271.109 88.3559 271.551C91.009 271.772 93.9938 272.767 97.3102 274.536C103.059 277.41 105.933 285.922 105.933 300.072C105.933 314.001 102.948 322.513 96.9786 325.609C93.6621 327.156 90.6774 328.151 88.0242 328.593C85.5922 328.815 81.8336 328.925 76.7484 328.925ZM237.668 288.796C238.994 276.415 247.727 270.224 263.867 270.224C272.49 270.224 278.902 270.888 283.103 272.214C287.303 273.541 290.178 275.862 291.725 279.179C293.494 282.495 294.489 285.48 294.71 288.133C295.152 290.565 295.373 294.324 295.373 299.409V415.484C295.373 420.569 295.152 424.438 294.71 427.091C294.489 429.523 293.605 432.398 292.057 435.714C288.962 441.462 281.334 444.337 269.174 444.337C257.235 444.337 249.165 442.9 244.964 440.025C240.984 436.93 238.663 432.508 237.999 426.76C229.819 438.478 216.111 444.337 196.876 444.337C177.861 444.337 160.174 435.603 143.813 418.137C127.452 400.67 119.271 380.44 119.271 357.446C119.271 334.231 127.452 314.001 143.813 296.756C160.395 279.289 178.525 270.556 198.202 270.556C205.719 270.556 212.573 271.883 218.764 274.536C224.955 277.189 229.266 279.731 231.698 282.163C234.13 284.374 236.12 286.585 237.668 288.796ZM177.309 357.778C177.309 365.074 180.183 371.707 185.931 377.677C191.68 383.425 198.644 386.299 206.825 386.299C215.005 386.299 221.749 383.314 227.055 377.345C232.582 371.375 235.346 364.853 235.346 357.778C235.346 350.482 232.693 343.738 227.387 337.548C222.301 331.357 215.337 328.262 206.493 328.262C197.87 328.262 190.795 331.357 185.268 337.548C179.962 343.738 177.309 350.482 177.309 357.778ZM376.527 357.778C376.527 367.064 379.623 374.36 385.813 379.666C392.004 384.752 398.526 387.294 405.38 387.294C412.455 387.294 418.978 385.304 424.947 381.325C431.138 377.124 436.113 375.023 439.871 375.023C446.504 375.023 454.574 380.882 464.081 392.6C469.166 399.012 471.709 404.761 471.709 409.846C471.709 418.247 465.629 426.096 453.469 433.393C440.866 442.236 425.389 446.658 407.039 446.658C386.477 446.658 366.689 439.252 347.675 424.438C338.61 417.363 331.203 407.967 325.454 396.249C319.706 384.309 316.832 371.265 316.832 357.115C316.832 342.744 319.706 329.809 325.454 318.312C331.203 306.594 338.61 297.198 347.675 290.123C366.025 275.531 385.592 268.234 406.375 268.234C414.777 268.234 422.957 269.45 430.917 271.883C438.876 274.093 444.735 276.304 448.494 278.515L453.8 281.832C457.78 284.485 460.875 286.585 463.086 288.133C468.835 292.555 471.709 297.64 471.709 303.389C471.709 308.916 469.387 315.217 464.744 322.292C456.785 334.452 449.157 340.533 441.861 340.533C437.66 340.533 431.691 338.101 423.952 333.236C419.973 329.478 414.224 327.598 406.707 327.598C399.411 327.598 392.557 330.252 386.145 335.558C379.733 340.864 376.527 348.271 376.527 357.778ZM544.538 390.279C548.297 394.038 550.176 401.776 550.176 413.494V414.821C550.176 420.127 549.955 424.107 549.513 426.76C549.292 429.192 548.186 432.176 546.196 435.714C542.88 442.126 534.478 445.332 520.991 445.332C507.726 445.332 498.882 443.231 494.46 439.03C490.259 434.83 488.159 426.87 488.159 415.152V413.826C488.159 408.74 488.269 404.871 488.491 402.218C488.933 399.565 490.038 396.58 491.807 393.264C495.123 386.631 503.414 383.314 516.68 383.314C530.167 383.314 539.453 385.636 544.538 390.279Z" fill="#72CFF9"/>
</svg>
